<?xml version="1.0" standalone="no"?>
<!DOCTYPE svg PUBLIC "-//W3C//DTD SVG 20010904//EN"
 "http://www.w3.org/TR/2001/REC-SVG-20010904/DTD/svg10.dtd">
<svg version="1.0" xmlns="http://www.w3.org/2000/svg"
 width="260.000000pt" height="260.000000pt" viewBox="0 0 260.000000 260.000000"
 preserveAspectRatio="xMidYMid meet">
<metadata>
Created by potrace 1.14, written by Peter Selinger 2001-2017
</metadata>
<g transform="translate(0.000000,260.000000) scale(0.100000,-0.100000)"
fill="#000000" stroke="none">
<path d="M885 2205 c-33 -7 -118 -20 -190 -30 -127 -16 -188 -35 -112 -35 44
0 48 -14 10 -34 l-28 -15 33 -1 c47 0 39 -14 -18 -29 -65 -17 -75 -33 -16 -25
47 7 59 -3 32 -26 -8 -6 -13 -17 -10 -25 4 -8 -6 -16 -26 -20 -17 -4 -34 -13
-37 -21 -8 -21 -61 -46 -83 -39 -24 8 -35 -11 -13 -23 14 -9 15 -13 4 -26 -10
-12 -10 -16 -1 -16 7 0 10 -7 6 -16 -3 -8 -2 -12 4 -9 6 3 10 13 10 21 0 8 6
14 13 14 9 0 8 3 -2 9 -28 18 162 133 217 130 14 0 14 -2 -3 -10 -14 -6 -2 -7
35 -3 30 4 53 4 50 1 -3 -2 -36 -19 -75 -36 -38 -18 -59 -30 -45 -27 14 4 45
9 70 12 39 5 42 4 25 -7 -11 -7 -47 -23 -80 -36 -33 -12 -58 -22 -55 -22 3 -1
40 6 83 14 43 8 97 15 120 14 l42 -1 -39 -9 c-22 -5 -47 -16 -55 -23 -9 -8
-70 -28 -136 -45 -135 -35 -274 -83 -257 -89 6 -2 49 8 94 22 123 37 320 86
343 86 16 -1 14 -4 -10 -15 -16 -7 -23 -14 -15 -15 8 -1 -1 -8 -20 -15 -46
-18 -50 -18 -44 0 4 9 -22 -1 -65 -25 -40 -21 -81 -42 -93 -46 -15 -4 -17 -8
-8 -14 9 -6 3 -13 -20 -25 -25 -13 -29 -19 -19 -25 15 -10 16 -9 -34 -39 -20
-13 -37 -28 -36 -34 1 -7 -1 -20 -6 -31 -5 -12 -3 -21 6 -27 8 -5 10 -9 5 -9
-5 0 -4 -6 2 -12 17 -21 5 -87 -22 -127 -14 -20 -26 -42 -26 -48 0 -6 -7 -16
-15 -23 -9 -7 -14 -19 -11 -25 2 -7 -1 -18 -7 -24 -8 -8 -8 -11 2 -11 8 0 11
-7 8 -20 -3 -11 -1 -23 4 -26 6 -4 6 -11 -1 -19 -8 -10 -7 -14 2 -17 10 -4 10
-8 -1 -22 -12 -14 -12 -19 -1 -26 7 -5 10 -15 6 -26 -4 -10 -1 -21 6 -25 9 -6
1 -21 -33 -56 -47 -50 -65 -103 -34 -103 13 0 14 -4 5 -20 -6 -11 -7 -20 -2
-20 5 0 8 -16 6 -35 -1 -19 1 -33 6 -30 5 3 10 -2 12 -10 2 -10 23 10 56 55
65 87 59 111 -11 43 -49 -47 -55 -43 -13 7 21 25 21 25 0 7 -41 -34 -37 -16 6
30 l45 46 -40 -31 c-39 -31 -60 -40 -53 -23 5 13 181 161 186 156 2 -2 -11
-23 -29 -47 -25 -33 -27 -38 -8 -23 57 48 65 52 38 15 -14 -19 -32 -46 -39
-60 -12 -24 -12 -24 6 -9 65 54 52 27 -41 -89 -37 -45 -71 -82 -76 -82 -5 0
-9 -8 -9 -19 0 -10 -10 -26 -22 -34 l-23 -16 30 -2 c17 -1 36 -1 43 0 7 1 12
-9 12 -23 0 -18 4 -24 15 -20 8 4 15 1 15 -5 0 -6 7 -11 15 -11 8 0 15 -7 15
-15 0 -9 6 -12 15 -9 10 4 15 0 15 -11 0 -9 4 -13 10 -10 6 3 10 -1 10 -10 0
-9 5 -13 10 -10 5 3 10 -1 10 -11 0 -14 3 -14 16 -4 13 11 16 10 20 -8 4 -13
11 -19 20 -15 12 4 12 0 4 -22 -13 -35 -6 -43 20 -20 12 11 20 13 20 6 0 -7 5
-9 10 -6 6 3 10 13 10 22 0 24 31 83 41 78 4 -3 14 3 21 15 7 11 18 20 24 20
5 0 20 18 33 40 12 22 26 40 31 40 5 0 10 10 12 23 2 16 11 23 32 25 22 3 27
0 23 -11 -11 -30 49 -4 98 43 28 26 66 56 85 68 39 23 86 69 78 77 -2 3 -37
-23 -77 -56 -40 -34 -74 -59 -76 -57 -9 8 67 103 83 104 9 1 29 7 45 13 15 6
27 8 27 5 0 -3 21 11 46 31 26 19 52 35 59 35 7 0 24 9 37 20 14 10 28 17 32
13 8 -8 47 27 41 38 -3 4 8 17 25 29 l30 21 0 -28 c0 -22 -12 -37 -55 -72 -42
-34 -52 -47 -44 -57 6 -7 7 -19 3 -25 -4 -8 -3 -9 4 -5 7 4 12 15 12 25 0 17
90 102 158 150 60 42 33 0 -60 -92 -73 -73 -104 -96 -146 -111 -67 -23 -71
-32 -16 -31 25 0 44 5 44 11 0 6 26 28 58 49 31 21 93 74 136 119 65 66 75 74
56 41 -64 -108 -155 -189 -293 -261 -94 -50 -89 -60 6 -13 188 95 350 272 432
475 31 77 58 97 144 105 85 7 237 76 281 126 49 55 49 143 1 143 -11 0 -45 13
-77 29 -67 33 -313 109 -454 141 -136 30 -143 35 -145 95 -2 50 -25 111 -33
87 -7 -21 -23 -13 -33 18 -7 18 -18 30 -28 30 -10 0 -27 14 -39 30 -13 17 -32
30 -43 30 -11 0 -48 12 -82 26 -40 17 -85 28 -126 30 -35 2 -76 5 -90 7 -14 3
-53 -1 -86 -8z m134 -36 c24 -11 42 -21 40 -23 -2 -2 -42 6 -89 18 -46 13 -78
25 -70 28 21 8 68 -1 119 -23z m91 11 c8 -5 11 -10 5 -10 -5 0 -17 5 -25 10
-8 5 -10 10 -5 10 6 0 17 -5 25 -10z m96 -41 c3 -6 -5 -3 -20 6 -14 10 -26 19
-26 22 0 7 39 -17 46 -28z m-236 -3 c35 -16 35 -16 5 -11 -17 3 -84 -4 -150
-15 -66 -11 -131 -20 -144 -20 l-24 0 23 20 c13 11 35 23 49 26 14 3 33 9 41
15 22 14 159 4 200 -15z m-115 -61 c-16 -7 -25 -14 -20 -15 6 0 -5 -7 -24 -15
-43 -19 -193 -57 -199 -50 -3 2 14 13 37 24 l43 18 -47 7 c-26 4 -45 10 -42
12 11 11 148 32 212 33 67 0 69 0 40 -14z m158 -362 c-11 -33 -15 -34 -34 -17
-15 13 -17 19 -7 26 24 15 48 9 41 -9z m-360 -10 c-7 -2 -19 -2 -25 0 -7 3 -2
5 12 5 14 0 19 -2 13 -5z m494 -15 c-3 -8 -6 -5 -6 6 -1 11 2 17 5 13 3 -3 4
-12 1 -19z m-462 -7 c-32 -13 -150 -39 -154 -35 -17 16 67 41 139 42 27 1 31
-1 15 -7z m33 -27 c-4 -3 -44 -14 -91 -24 -46 -10 -100 -25 -120 -34 -52 -21
-46 -9 7 14 75 34 226 66 204 44z m-8 -44 c24 -7 23 -8 -20 -28 -38 -18 -41
-21 -20 -22 24 -2 23 -2 -8 -16 -18 -8 -31 -18 -28 -23 3 -4 -32 -28 -78 -53
l-83 -44 3 58 c2 67 10 79 62 104 66 31 123 39 172 24z m-180 -185 c-22 -23
-22 -25 -4 -25 16 0 17 -2 4 -10 -8 -5 -26 -10 -38 -10 -29 0 -25 20 7 36 13
7 28 17 34 23 22 22 20 10 -3 -14z m10 -75 c-19 -16 -59 -39 -88 -50 -66 -25
-80 -25 -27 1 39 18 40 18 11 19 -47 0 -18 19 60 40 38 10 71 19 74 19 3 0
-11 -13 -30 -29z m30 -25 c0 -3 -15 -14 -32 -25 -18 -11 -26 -20 -18 -20 10
-1 7 -7 -10 -22 -24 -20 -21 -20 27 -1 10 4 14 2 10 -4 -9 -14 -147 -96 -153
-90 -5 4 34 39 72 65 11 7 0 3 -23 -8 -23 -11 -44 -16 -48 -11 -3 5 0 13 7 17
8 5 6 10 -8 14 -16 6 -9 12 36 35 43 22 97 44 138 54 1 1 2 -1 2 -4z m-21
-111 c-21 -26 -141 -104 -151 -98 -15 9 1 23 80 69 85 50 90 52 71 29z m921
-19 c-13 -14 -26 -22 -29 -19 -3 3 5 14 18 25 33 27 39 24 11 -6z m-915 -20
c-52 -45 -125 -95 -139 -95 -14 1 32 39 108 90 73 49 84 51 31 5z m489 -212
c-26 -43 -55 -88 -66 -99 -10 -12 -18 -25 -16 -30 2 -5 -1 -10 -5 -11 -5 0
-21 -13 -37 -28 -18 -17 -30 -23 -35 -16 -3 7 -12 11 -18 10 -29 -3 -37 3 -37
30 0 47 75 171 103 171 5 0 16 8 23 17 7 10 16 15 20 10 4 -4 -11 -34 -34 -67
-22 -33 -39 -60 -38 -60 2 0 29 32 61 71 84 104 86 81 4 -43 -21 -32 -36 -58
-34 -58 3 0 37 43 76 96 39 53 73 94 75 91 3 -3 -16 -40 -42 -84z m56 48 c-25
-36 -39 -42 -18 -8 8 12 18 28 22 35 5 7 10 11 13 8 3 -3 -5 -19 -17 -35z
m-755 -51 c-10 -11 -21 -17 -24 -14 -3 3 3 12 13 20 28 20 32 17 11 -6z m44
-109 c-18 -23 -34 -39 -37 -36 -5 5 61 83 67 79 1 -2 -12 -21 -30 -43z m77 -8
c-42 -60 -66 -86 -72 -80 -6 6 30 60 70 104 30 35 32 18 2 -24z m45 24 c-10
-9 -11 -8 -5 6 3 10 9 15 12 12 3 -3 0 -11 -7 -18z m-21 -57 c0 -5 -13 -16
-30 -25 -27 -14 -29 -14 -23 1 4 12 27 28 51 33 1 1 2 -3 2 -9z m53 -21 c-10
-17 -24 -36 -32 -42 -12 -10 -13 -9 -6 3 14 24 48 70 52 70 2 0 -4 -14 -14
-31z m234 -41 c-3 -8 -6 -5 -6 6 -1 11 2 17 5 13 3 -3 4 -12 1 -19z m-42 -47
c-19 -56 -41 -86 -48 -68 -4 11 53 119 61 113 1 -2 -4 -22 -13 -45z m-82 -16
c-3 -9 -8 -14 -10 -11 -3 3 -2 9 2 15 9 16 15 13 8 -4z m-44 -15 c16 24 20 7
10 -40 -11 -50 -29 -76 -29 -43 0 16 -5 20 -20 16 -17 -5 -18 -2 -10 26 13 45
21 56 31 40 8 -12 11 -12 18 1z m-49 -10 c0 -3 -5 -12 -10 -20 -9 -13 -10 -13
-10 0 0 13 -1 13 -10 0 -11 -18 -23 -8 -14 13 5 14 44 21 44 7z"/>
<path d="M591 634 c0 -11 3 -14 6 -6 3 7 2 16 -1 19 -3 4 -6 -2 -5 -13z"/>
</g>
</svg>
